<svg width="85" height="76" viewBox="0 0 85 76" fill="none" xmlns="http://www.w3.org/2000/svg">
<path d="M9.03429 49.4857C8.36508 49.4857 7.70667 49.3778 7.05905 49.1619C6.41143 48.946 5.89333 48.5467 5.50476 47.9638C3.86413 47.1651 2.68762 46.0102 1.97524 44.499C1.28444 42.9663 0.939048 41.0127 0.939048 38.6381C0.939048 37.0406 1.13333 35.4648 1.5219 33.9105C1.93206 32.3562 2.52571 30.9422 3.30286 29.6686C4.08 28.3949 5.04064 27.3803 6.18476 26.6248C7.35048 25.8476 8.6781 25.459 10.1676 25.459C10.9879 25.459 11.8083 25.5994 12.6286 25.88C13.4489 26.1606 14.0533 26.614 14.4419 27.24C15.4565 27.607 16.2229 28.1683 16.741 28.9238C17.259 29.6794 17.6044 30.6076 17.7771 31.7086C17.9714 32.8095 18.0686 34.0724 18.0686 35.4971C18.0686 36.814 17.9283 38.1632 17.6476 39.5448C17.367 40.9048 16.946 42.2108 16.3848 43.4629C15.8451 44.6933 15.1867 45.7835 14.4095 46.7333L19.4933 53.1124C19.6013 53.2419 19.6552 53.393 19.6552 53.5657C19.6552 53.7168 19.5905 53.8463 19.461 53.9543C19.353 54.0838 19.1911 54.1378 18.9752 54.1162C18.414 54.0514 17.7124 53.8679 16.8705 53.5657C16.0502 53.2635 15.2838 52.8749 14.5714 52.4L10.0705 49.3886C9.74667 49.4533 9.40127 49.4857 9.03429 49.4857ZM7.83619 45.7943C8.52698 45.6216 9.1746 45.1359 9.77905 44.3371C10.4051 43.5168 10.9556 42.513 11.4305 41.3257C11.927 40.1168 12.3156 38.854 12.5962 37.5371C12.8768 36.1987 13.0171 34.9359 13.0171 33.7486C13.0171 32.6044 12.866 31.5683 12.5638 30.64C12.2832 29.7117 11.8298 29.1721 11.2038 29.021C10.4051 29.1721 9.6819 29.647 9.03429 30.4457C8.40825 31.2444 7.87936 32.2267 7.44762 33.3924C7.03746 34.5581 6.71365 35.7994 6.47619 37.1162C6.26032 38.4114 6.15238 39.6527 6.15238 40.84C6.15238 42.1568 6.2819 43.2362 6.54095 44.0781C6.82159 44.8984 7.25333 45.4705 7.83619 45.7943ZM27.2627 49.4533C25.73 49.4533 24.478 49.0863 23.5065 48.3524C22.5351 47.6184 21.8227 46.6686 21.3694 45.5029C20.9161 44.3371 20.6894 43.1175 20.6894 41.8438C20.6894 40.7429 20.7218 39.5663 20.7865 38.3143C20.8729 37.0622 20.97 35.8317 21.078 34.6229C21.2075 33.414 21.3154 32.3238 21.4018 31.3524C21.445 30.8559 21.5637 30.5537 21.758 30.4457C21.9523 30.3162 22.2113 30.2514 22.5351 30.2514C23.0316 30.2514 23.5605 30.381 24.1218 30.64C24.7046 30.899 25.2011 31.2337 25.6113 31.6438C26.0431 32.054 26.2589 32.4857 26.2589 32.939C26.2589 33.0686 26.2265 33.4679 26.1618 34.1371C26.097 34.7848 26.0107 35.5727 25.9027 36.501C25.8164 37.4292 25.7408 38.379 25.6761 39.3505C25.6113 40.3003 25.5789 41.1314 25.5789 41.8438C25.5789 44.0025 26.1402 45.0819 27.2627 45.0819C27.8888 45.0819 28.3961 44.6933 28.7846 43.9162C29.1948 43.139 29.5294 42.1137 29.7885 40.84C30.0475 39.5448 30.2526 38.1092 30.4037 36.5333C30.5548 34.9575 30.6735 33.3708 30.7599 31.7733C30.7815 31.4495 30.9002 31.2552 31.1161 31.1905C31.3319 31.1041 31.5154 31.061 31.6665 31.061C32.1199 31.061 32.638 31.2337 33.2208 31.579C33.8037 31.9029 34.311 32.3562 34.7427 32.939C35.1745 33.5003 35.3904 34.1587 35.3904 34.9143C35.3904 36.2959 35.304 37.6775 35.1313 39.059C34.9802 40.4406 34.7212 41.7575 34.3542 43.0095C33.9872 44.24 33.4907 45.341 32.8646 46.3124C32.2602 47.2838 31.4938 48.0502 30.5656 48.6114C29.6373 49.1727 28.5364 49.4533 27.2627 49.4533ZM41.9892 49.4533C41.428 49.4533 40.8343 49.3454 40.2083 49.1295C39.6038 48.9137 39.0857 48.6006 38.654 48.1905C38.2438 47.7803 38.0388 47.2838 38.0388 46.701C38.0388 46.3556 38.0603 45.7403 38.1035 44.8552C38.1467 43.9702 38.2007 42.9448 38.2654 41.779C38.3302 40.5917 38.4057 39.3721 38.4921 38.12C38.5784 36.8463 38.6756 35.6375 38.7835 34.4933C38.8915 33.3492 38.9886 32.3778 39.075 31.579C39.0965 31.4063 39.2045 31.2984 39.3988 31.2552C39.593 31.1905 39.755 31.1581 39.8845 31.1581C40.381 31.1581 40.9315 31.2984 41.5359 31.579C42.1403 31.8597 42.6584 32.2159 43.0902 32.6476C43.5435 33.0794 43.7702 33.5327 43.7702 34.0076C43.7702 34.2883 43.727 34.8495 43.6407 35.6914C43.5543 36.5117 43.4464 37.494 43.3169 38.6381C43.2089 39.7822 43.0902 40.9803 42.9607 42.2324C42.8527 43.4844 42.7556 44.7041 42.6692 45.8914C42.5829 47.0571 42.5397 48.0717 42.5397 48.9352C42.5397 49.0432 42.4965 49.1511 42.4102 49.259C42.3238 49.3886 42.1835 49.4533 41.9892 49.4533ZM42.4426 27.9524C41.7302 27.9524 41.0718 27.8768 40.4673 27.7257C39.8845 27.553 39.4203 27.2508 39.075 26.819C38.7511 26.3873 38.6108 25.7721 38.654 24.9733C38.6972 24.5632 38.7511 24.1206 38.8159 23.6457C38.9023 23.1492 39.1829 22.847 39.6578 22.739C39.9169 22.6959 40.2299 22.6635 40.5969 22.6419C40.9638 22.6203 41.2876 22.6095 41.5683 22.6095C42.1727 22.6095 42.8419 22.7067 43.5759 22.901C43.9429 22.9873 44.1264 23.1276 44.1264 23.3219C44.1264 23.8184 44.0508 24.4013 43.8997 25.0705C43.7486 25.7397 43.5867 26.6571 43.414 27.8229C43.0686 27.9092 42.7448 27.9524 42.4426 27.9524ZM49.494 49.6476C49.0407 49.6476 48.6089 49.5181 48.1988 49.259C47.7886 49 47.4972 48.633 47.3245 48.1581C46.5042 47.7479 46.1588 47.0356 46.2883 46.021C46.3315 45.7835 46.3963 45.5137 46.4826 45.2114C46.5905 44.8876 46.7201 44.6178 46.8712 44.4019L53.4121 34.72C52.2464 35.1733 51.221 35.4 50.3359 35.4C49.8826 35.4 49.3753 35.2381 48.814 34.9143C48.2743 34.5689 47.7994 34.1371 47.3893 33.619C47.0007 33.0794 46.8064 32.5181 46.8064 31.9352C46.8064 31.741 46.882 31.6114 47.0331 31.5467C47.2058 31.4603 47.3677 31.4171 47.5188 31.4171C47.821 31.4171 48.3499 31.3632 49.1055 31.2552C49.8826 31.1257 50.7245 30.9854 51.6312 30.8343C52.5594 30.6616 53.4337 30.5213 54.254 30.4133C55.0959 30.2838 55.7328 30.219 56.1645 30.219C57.287 30.219 58.0642 30.6184 58.4959 31.4171C58.9924 31.7194 59.3055 32.0432 59.435 32.3886C59.5861 32.734 59.6401 33.1117 59.5969 33.5219C59.5753 33.6083 59.5213 33.6838 59.435 33.7486C59.3486 33.8133 59.2731 33.8997 59.2083 34.0076L51.534 45.4057C52.0305 45.2546 52.5594 45.1035 53.1207 44.9524C53.682 44.8013 54.2864 44.7257 54.934 44.7257C55.6248 44.7257 56.294 44.8121 56.9416 44.9848C57.5893 45.1575 58.1182 45.4057 58.5283 45.7295C58.9385 46.0533 59.1436 46.4419 59.1436 46.8952C59.1436 47.1111 59.068 47.2514 58.9169 47.3162C58.7658 47.381 58.6147 47.4349 58.4636 47.4781C58.2045 47.5429 57.7836 47.6616 57.2007 47.8343C56.6394 47.9854 55.9918 48.1689 55.2578 48.3848C54.5239 48.579 53.7791 48.7733 53.0236 48.9676C52.2896 49.1619 51.5988 49.3238 50.9512 49.4533C50.3251 49.5829 49.8394 49.6476 49.494 49.6476ZM65.7986 49.4533C65.2373 49.4533 64.6221 49.3238 63.9529 49.0648C63.3053 48.8273 62.744 48.4063 62.2691 47.8019C61.8157 47.1759 61.5891 46.3124 61.5891 45.2114C61.5891 44.9524 61.6107 44.3587 61.6538 43.4305C61.7186 42.5022 61.7942 41.3581 61.8805 39.9981C61.9884 38.6381 62.0964 37.1917 62.2043 35.659C62.3338 34.1048 62.4634 32.5829 62.5929 31.0933C62.7224 29.6038 62.8519 28.2654 62.9815 27.0781C63.111 25.8692 63.2297 24.9517 63.3376 24.3257C63.3808 24.153 63.4888 24.0451 63.6615 24.0019C63.8342 23.9371 63.9853 23.9048 64.1148 23.9048C64.5897 23.9048 65.1294 24.0451 65.7338 24.3257C66.3599 24.6063 66.8888 25.0381 67.3205 25.621C67.7738 26.2038 67.9573 26.9486 67.871 27.8552C67.8278 28.3302 67.763 29.0749 67.6767 30.0895C67.5903 31.1041 67.4824 32.2806 67.3529 33.619C67.2449 34.9575 67.137 36.3714 67.0291 37.861C66.9211 39.3289 66.8132 40.7752 66.7053 42.2C66.6189 43.6248 66.5434 44.9308 66.4786 46.1181C66.4138 47.2838 66.3815 48.2229 66.3815 48.9352C66.3815 49.0432 66.3275 49.1511 66.2196 49.259C66.1332 49.3886 65.9929 49.4533 65.7986 49.4533ZM73.5053 55.1524C72.5986 55.1524 71.9402 55.0121 71.53 54.7314C71.1199 54.4724 70.8608 54.1917 70.7529 53.8895C70.6449 53.6089 70.591 53.447 70.591 53.4038C70.591 53.2095 70.6449 53.0692 70.7529 52.9829C70.8608 52.9181 70.9688 52.8641 71.0767 52.821C71.2494 52.7346 71.5408 52.5403 71.951 52.2381C72.3827 51.9359 72.8361 51.461 73.311 50.8133C73.7859 50.1873 74.1853 49.3562 74.5091 48.32C73.7967 47.9098 73.2138 47.3162 72.7605 46.539C72.3288 45.7619 72.0265 44.9632 71.8538 44.1429C71.7459 43.6032 71.6272 42.8908 71.4976 42.0057C71.3681 41.1206 71.2278 40.1492 71.0767 39.0914C70.9472 38.0337 70.8176 36.9867 70.6881 35.9505C70.5586 34.9143 70.4399 33.9644 70.3319 33.101C70.2456 32.2159 70.17 31.5143 70.1053 30.9962C70.0405 30.4565 70.0081 30.1867 70.0081 30.1867C70.1161 29.9276 70.5046 29.7981 71.1738 29.7981C71.6703 29.7981 72.2532 29.9816 72.9224 30.3486C73.5916 30.7156 74.1853 31.2013 74.7034 31.8057C75.2215 32.3886 75.5021 33.0362 75.5453 33.7486C75.5668 34.0076 75.6208 34.6444 75.7072 35.659C75.7935 36.6737 75.8907 37.8825 75.9986 39.2857C76.1065 40.6889 76.2145 42.1244 76.3224 43.5924H76.4195L79.8843 30.3486C79.9491 30.0895 80.3053 29.96 80.9529 29.96C81.4278 29.96 81.9459 30.0787 82.5072 30.3162C83.09 30.5537 83.5865 30.8883 83.9967 31.32C84.4284 31.7517 84.6443 32.259 84.6443 32.8419C84.6443 32.9283 84.6443 33.0254 84.6443 33.1333C84.6443 33.2413 84.6227 33.3492 84.5795 33.4571C84.558 33.5435 84.45 33.8889 84.2557 34.4933C84.0615 35.0978 83.7916 35.8857 83.4462 36.8571C83.1224 37.807 82.7446 38.8756 82.3129 40.0629C81.9027 41.2286 81.471 42.4483 81.0176 43.7219C80.5643 44.974 80.1218 46.2044 79.69 47.4133C79.1935 48.7949 78.6322 50.0686 78.0062 51.2343C77.4018 52.4216 76.7218 53.3714 75.9662 54.0838C75.2322 54.7962 74.4119 55.1524 73.5053 55.1524Z" fill="#B66AFC"/>
<path d="M25.9514 43.0459L14.8663 41.7048L16.7787 39.6137L17.1041 39.2576L16.873 38.8342L15.5144 36.3473L26.5996 37.6885L25.9514 43.0459Z" fill="#B66AFC" stroke="black" stroke-width="1.34921"/>
</svg>
