<svg width="39" height="37" viewBox="0 0 39 37" fill="none" xmlns="http://www.w3.org/2000/svg">
<path d="M19.7249 26.804C14.0957 26.804 13.6627 23.2316 12.0389 21.4995C7.6546 17.4941 2.29599 21.4996 1.53821 24.3683C0.762384 26.2988 0.412362 30.9177 5.21885 33.9488C5.83231 34.2736 7.55719 34.9881 9.54905 35.2479C11.5409 35.5077 17.1629 35.6698 19.7249 35.5615" stroke="white" stroke-width="2.16509"/>
<path d="M18.7253 26.804C24.3545 26.804 24.7875 23.2316 26.4113 21.4995C30.7956 17.4941 36.1542 21.4996 36.912 24.3683C37.6878 26.2988 38.0378 30.9177 33.2313 33.9488C32.6179 34.2736 30.893 34.9881 28.9011 35.2479C26.9093 35.5077 21.2873 35.6698 18.7253 35.5615" stroke="white" stroke-width="2.16509"/>
<mask id="path-3-inside-1_2442_1049" fill="white">
<path d="M3.02832 7.5778C3.02832 3.3927 6.42102 0 10.6061 0H27.3855C31.5706 0 34.9633 3.3927 34.9633 7.5778V20.6766H3.02832V7.5778Z"/>
</mask>
<path d="M0.863235 7.5778C0.863235 2.19695 5.22527 -2.16509 10.6061 -2.16509H27.3855C32.7664 -2.16509 37.1284 2.19695 37.1284 7.5778H32.7983C32.7983 4.58844 30.3749 2.16509 27.3855 2.16509H10.6061C7.61676 2.16509 5.19341 4.58844 5.19341 7.5778H0.863235ZM5.19341 7.5778M34.9633 20.6766H3.02832H34.9633M0.863235 20.6766V7.5778C0.863235 2.19695 5.22527 -2.16509 10.6061 -2.16509V2.16509C7.61676 2.16509 5.19341 4.58844 5.19341 7.5778V20.6766H0.863235ZM27.3855 -2.16509C32.7664 -2.16509 37.1284 2.19695 37.1284 7.5778V20.6766H32.7983V7.5778C32.7983 4.58844 30.3749 2.16509 27.3855 2.16509V-2.16509Z" fill="white" mask="url(#path-3-inside-1_2442_1049)"/>
<path d="M17.9673 19.8105C17.9673 20.4084 18.4519 20.8931 19.0498 20.8931C19.6477 20.8931 20.1323 20.4084 20.1323 19.8105L19.0498 19.8105L17.9673 19.8105ZM19.8153 6.81234C19.3925 6.38958 18.7071 6.38958 18.2843 6.81234L11.3951 13.7016C10.9723 14.1244 10.9723 14.8098 11.3951 15.2325C11.8178 15.6553 12.5033 15.6553 12.926 15.2325L19.0498 9.10876L25.1736 15.2325C25.5964 15.6553 26.2818 15.6553 26.7045 15.2325C27.1273 14.8098 27.1273 14.1244 26.7045 13.7016L19.8153 6.81234ZM19.0498 19.8105L20.1323 19.8105L20.1323 7.57781L19.0498 7.57781L17.9673 7.57781L17.9673 19.8105L19.0498 19.8105Z" fill="white"/>
</svg>
